<svg width="174" height="34" viewBox="0 0 174 34" fill="none" xmlns="http://www.w3.org/2000/svg">
<path d="M15.422 26.606C15.002 26.41 14.148 26.018 12.86 25.43C11.572 24.842 10.116 24.184 8.492 23.456C6.84 22.728 5.23 22.028 3.662 21.356C2.122 20.684 1.072 20.236 0.512 20.012L0.176 19.466L0.218 15.476L8.282 12.032L15.8 8.84L16.346 9.176L17.144 12.326C16.64 12.494 15.576 12.886 13.952 13.502C12.356 14.09 10.872 14.678 9.5 15.266L4.25 17.408V17.702L10.088 20.222C11.712 20.95 13.154 21.608 14.414 22.196C15.702 22.756 16.556 23.12 16.976 23.288L17.186 23.918L15.422 26.606ZM26.4545 29C25.4745 29 24.3265 29.056 23.0105 29.168C21.6945 29.28 20.8265 29.364 20.4065 29.42L20.7005 26.648C21.9045 26.424 22.7165 26.088 23.1365 25.64C23.5565 25.164 23.7665 24.38 23.7665 23.288L23.8085 6.824C23.8085 6.04 23.7105 5.494 23.5145 5.186C23.3185 4.878 22.9685 4.724 22.4645 4.724C22.1845 4.724 21.9045 4.738 21.6245 4.766C21.3445 4.794 21.1485 4.808 21.0365 4.808L20.7425 4.472L21.1205 1.952C21.5685 1.952 22.3805 1.966 23.5565 1.994C24.7605 2.022 25.8805 2.036 26.9165 2.036C27.9805 2.036 29.1705 2.008 30.4865 1.952C31.8025 1.896 32.7265 1.854 33.2585 1.826C36.1425 1.826 38.3405 2.386 39.8525 3.506C41.3645 4.626 42.1205 6.236 42.1205 8.336C42.1205 9.736 41.7145 10.982 40.9025 12.074C40.1185 13.138 39.0125 14.034 37.5845 14.762C39.4045 15.238 40.8465 15.994 41.9105 17.03C43.0025 18.066 43.5485 19.396 43.5485 21.02C43.5485 22.672 43.0865 24.142 42.1625 25.43C41.2665 26.69 39.9925 27.67 38.3405 28.37C36.7165 29.07 34.8265 29.42 32.6705 29.42C32.3345 29.42 31.8725 29.392 31.2845 29.336C30.6965 29.28 30.2485 29.238 29.9405 29.21C29.5765 29.182 29.0165 29.14 28.2605 29.084C27.5045 29.028 26.9025 29 26.4545 29ZM29.3525 13.544C29.6885 13.572 30.3605 13.642 31.3685 13.754C32.3765 13.866 33.0485 13.922 33.3845 13.922C33.3845 13.978 33.6505 13.838 34.1825 13.502C34.7425 13.138 35.2325 12.62 35.6525 11.948C36.1005 11.276 36.3245 10.422 36.3245 9.386C36.3245 7.958 35.8485 6.908 34.8965 6.236C33.9445 5.564 32.4605 5.228 30.4445 5.228C30.1645 5.228 29.9685 5.284 29.8565 5.396C29.7725 5.508 29.7165 5.718 29.6885 6.026C29.5205 8.294 29.4085 10.8 29.3525 13.544ZM29.1005 23.414C29.1005 24.31 29.4085 24.954 30.0245 25.346C30.6405 25.71 31.6625 25.892 33.0905 25.892C34.4625 25.892 35.5405 25.514 36.3245 24.758C37.1085 24.002 37.5005 22.966 37.5005 21.65C37.5005 20.502 37.1225 19.55 36.3665 18.794C35.6385 18.01 34.5745 17.464 33.1745 17.156L29.2685 17.198L29.1005 23.414ZM63.3706 29.504C61.7466 29.504 60.4726 28.496 59.5486 26.48L56.7346 20.978H54.3826L54.3406 24.212C54.3406 24.968 54.3966 25.514 54.5086 25.85C54.6206 26.158 54.8306 26.368 55.1386 26.48C55.4746 26.592 56.0346 26.662 56.8186 26.69L56.9866 26.9L56.6086 29.126C56.1606 29.098 55.3626 29.07 54.2146 29.042C53.0946 29.042 52.1146 29.042 51.2746 29.042C50.3786 29.042 49.4546 29.07 48.5026 29.126C47.5506 29.182 46.9346 29.224 46.6546 29.252L46.9486 26.816C47.9006 26.704 48.5306 26.466 48.8386 26.102C49.1746 25.71 49.3426 25.052 49.3426 24.128L49.3846 11.822C49.3846 11.234 49.3006 10.842 49.1326 10.646C48.9926 10.422 48.7266 10.31 48.3346 10.31L47.1166 10.352L46.8646 10.058L47.2006 7.916L51.6526 7.958C52.6326 7.958 53.6826 7.944 54.8026 7.916C55.9226 7.86 56.7066 7.818 57.1546 7.79C59.9266 7.79 62.0406 8.28 63.4966 9.26C64.9526 10.24 65.6806 11.668 65.6806 13.544C65.6806 14.832 65.2886 16.008 64.5046 17.072C63.7206 18.136 62.5866 19.032 61.1026 19.76L63.9166 24.086C64.5886 25.066 65.2186 25.78 65.8066 26.228C66.3946 26.676 67.0246 26.9 67.6966 26.9L67.9906 27.278L67.6966 29.168L63.3706 29.504ZM57.4906 18.038C59.3666 17.366 60.3046 16.078 60.3046 14.174C60.3046 13.054 59.8986 12.228 59.0866 11.696C58.2746 11.136 57.0286 10.856 55.3486 10.856C55.1246 10.856 54.9706 10.912 54.8866 11.024C54.8306 11.108 54.7886 11.304 54.7606 11.612C54.5926 13.908 54.5086 15.938 54.5086 17.702L57.4906 18.038ZM79.0392 29.378C76.2952 29.378 74.2512 28.804 72.9072 27.656C71.5912 26.508 70.9332 24.744 70.9332 22.364V12.074C70.9332 11.346 70.8632 10.87 70.7232 10.646C70.5832 10.422 70.2752 10.31 69.7992 10.31L68.7492 10.352L68.6652 10.226L68.9592 7.874C69.2952 7.874 69.9532 7.888 70.9332 7.916C71.9412 7.944 73.0192 7.958 74.1672 7.958C75.0072 7.958 75.8472 7.944 76.6872 7.916C77.5272 7.86 78.1012 7.818 78.4092 7.79L78.1152 10.226C77.4432 10.282 76.9672 10.436 76.6872 10.688C76.4352 10.94 76.2812 11.346 76.2252 11.906L76.0152 21.44C76.0152 22.896 76.3512 24.044 77.0232 24.884C77.7232 25.724 78.7032 26.144 79.9632 26.144C82.5672 26.144 83.8692 24.842 83.8692 22.238C83.8692 20.586 83.8412 18.696 83.7852 16.568C83.7572 14.44 83.7432 12.942 83.7432 12.074C83.7432 11.374 83.6732 10.912 83.5332 10.688C83.3932 10.436 83.1132 10.31 82.6932 10.31L81.6012 10.352L81.5172 10.226L81.8532 7.874C82.1612 7.874 82.7072 7.888 83.4912 7.916C84.3032 7.944 85.1012 7.958 85.8852 7.958C86.6692 7.958 87.5092 7.944 88.4052 7.916C89.3292 7.86 89.9312 7.818 90.2112 7.79L90.0012 10.184C89.1612 10.38 88.6152 10.576 88.3632 10.772C88.1392 10.94 88.0272 11.276 88.0272 11.78V21.692C88.0272 24.184 87.2572 26.088 85.7172 27.404C84.1772 28.72 81.9512 29.378 79.0392 29.378ZM109.519 11.696C109.491 11.164 109.393 10.8 109.225 10.604C109.057 10.408 108.777 10.31 108.385 10.31H107.209L107.083 10.016L107.293 7.832C107.629 7.86 108.259 7.888 109.183 7.916C110.107 7.944 111.045 7.958 111.997 7.958C112.921 7.958 113.789 7.944 114.601 7.916C115.413 7.86 115.959 7.818 116.239 7.79L116.071 10.184C115.315 10.296 114.769 10.506 114.433 10.814C114.125 11.122 113.957 11.598 113.929 12.242L113.425 29.336L109.267 29.756C107.139 26.62 105.137 23.764 103.261 21.188C101.413 18.584 100.237 16.932 99.7331 16.232H99.3551V25.178C99.3551 25.766 99.4391 26.172 99.6071 26.396C99.8031 26.62 100.125 26.732 100.573 26.732C100.825 26.732 101.091 26.718 101.371 26.69C101.679 26.662 101.889 26.648 102.001 26.648L102.211 26.858L101.833 29.126C101.497 29.126 100.867 29.098 99.9431 29.042C99.0191 29.014 98.1091 29 97.2131 29C96.4011 29 95.5191 29.028 94.5671 29.084C93.6431 29.168 93.0411 29.224 92.7611 29.252L93.0551 26.858C93.7551 26.774 94.2591 26.578 94.5671 26.27C94.8751 25.962 95.0431 25.472 95.0711 24.8L95.5331 12.284C95.5331 11.584 95.3511 11.108 94.9871 10.856C94.6231 10.576 93.8811 10.366 92.7611 10.226L92.4671 9.89L92.7191 7.79C92.9711 7.818 93.5451 7.86 94.4411 7.916C95.3371 7.944 96.1631 7.958 96.9191 7.958C97.7311 7.958 98.4731 7.944 99.1451 7.916C99.8171 7.888 100.265 7.86 100.489 7.832C102.225 10.548 103.975 13.166 105.739 15.686C107.531 18.178 108.693 19.774 109.225 20.474H109.603L109.519 11.696ZM128.423 29.378C125.287 29.378 122.823 28.468 121.031 26.648C119.267 24.8 118.385 22.252 118.385 19.004C118.385 16.68 118.847 14.664 119.771 12.956C120.695 11.22 122.011 9.89 123.719 8.966C125.455 8.042 127.471 7.58 129.767 7.58C132.959 7.58 135.437 8.49 137.201 10.31C138.965 12.102 139.847 14.622 139.847 17.87C139.847 20.194 139.371 22.224 138.419 23.96C137.495 25.696 136.165 27.04 134.429 27.992C132.721 28.916 130.719 29.378 128.423 29.378ZM129.263 26.228C130.775 26.228 131.937 25.668 132.749 24.548C133.561 23.428 133.967 21.804 133.967 19.676C133.967 16.82 133.519 14.678 132.623 13.25C131.755 11.822 130.495 11.108 128.843 11.108C127.359 11.108 126.225 11.654 125.441 12.746C124.657 13.838 124.265 15.462 124.265 17.618C124.265 20.502 124.685 22.658 125.525 24.086C126.393 25.514 127.639 26.228 129.263 26.228ZM141.959 33.158C142.211 32.346 142.743 30.54 143.555 27.74C144.367 24.912 145.109 22.168 145.781 19.508L150.611 0.649999H153.929L154.433 1.28C154.069 2.596 153.383 5.074 152.375 8.714C151.395 12.354 150.387 16.106 149.351 19.97C148.483 23.33 147.727 26.256 147.083 28.748C146.439 31.212 146.019 32.836 145.823 33.62H142.337L141.959 33.158ZM157.461 26.27L156.621 23.12C157.097 22.952 158.147 22.56 159.771 21.944C161.395 21.328 162.893 20.726 164.265 20.138L169.515 18.038V17.744L163.719 15.182L156.789 12.158L156.579 11.528L158.343 8.84C158.763 9.036 159.617 9.428 160.905 10.016C162.193 10.604 163.649 11.262 165.273 11.99C166.925 12.718 168.521 13.418 170.061 14.09C171.629 14.762 172.693 15.21 173.253 15.434L173.589 15.98L173.547 19.97L165.483 23.414L158.007 26.606L157.461 26.27Z" fill="#DF8223"/>
</svg>
